Description

Sinopse e detalhes

Fruto de uma das experiências das Umbrella Corporation, Alice (Milla Jovovich) acorda misteriosamente em outra realidade, como se nada tivesse acontecido no planeta Terra. Mas as sequelas do vírus T logo aparecem na forma de zumbis famintos por carne humana e ela descobre, novamente, fazer parte de um novo e viajante experimento. Dentro das intalações da terrível corporação, a guerreira descobre que um antigo inimigo pode estar por trás de um plano para salvar não só ela, mas também seus antigos companheiros de luta, como Ada (Binbing Li), entre outros. Agora reunidos, eles lutarão lado a lado num combate sangrento, que os levará a uma importante e inacreditável revelação. Só existe um problema, Jill Valentine (Sienna Gillory) e Rain Ocampo (Michelle Rodriguez), sob as ordens da poderosa Rainha Vermelha, não estão dispostas a facilitar as coisas para o grupo, que ainda por cima corre contra o tempo.

Format : Matroska
Format version : Version 2
File size : 649 MiB
Duration : 1h 35mn
Overall bit rate : 948 Kbps
Encoded date : UTC 2013-05-31 12:04:16
Writing application : mkvmerge v5.8.0 ('No Sleep / Pillow') built on Sep 2 2012 15:37:04
Writing library : libebml v1.2.3 + libmatroska v1.3.0

Video
ID : 1
Format : AVC
Format/Info : Advanced Video Codec
Format profile : High@L4.0
Format settings, CABAC : Yes
Format settings, ReFrames : 7 frames
Muxing mode : Header stripping
Codec ID : V_MPEG4/ISO/AVC
Duration : 1h 35mn
Bit rate : 852 Kbps
Width : 1 280 pixels
Height : 536 pixels
Display aspect ratio : 2.40:1
Frame rate mode : Constant
Frame rate : 23.976 fps
Color space : YUV
Chroma subsampling : 4:2:0
Bit depth : 8 bits
Scan type : Progressive
Bits/(Pixel*Frame) : 0.052
Stream size : 570 MiB (88%)
Title : Resident Evil5 ( Credito The Pirate Filmes )
Writing library : x264 core 125 r2200 999b753
Encoding settings : cabac=1 / ref=8 / deblock=1:-1:-1 / analyse=0x3:0x133 / me=umh / subme=9 / psy=1 / psy_rd=1.00:0.15 / mixed_ref=1 / me_range=16 / chroma_me=1 / trellis=2 / 8x8dct=1 / cqm=0 / deadzone=21,11 / fast_pskip=1 / chroma_qp_offset=-3 / threads=12 / lookahead_threads=2 / sliced_threads=0 / nr=0 / decimate=1 / interlaced=0 / bluray_compat=0 / constrained_intra=0 / bframes=3 / b_pyramid=1 / b_adapt=2 / b_bias=0 / direct=3 / weightb=1 / open_gop=0 / weightp=2 / keyint=240 / keyint_min=23 / scenecut=40 / intra_refresh=0 / rc_lookahead=60 / rc=2pass / mbtree=1 / bitrate=852 / ratetol=1.0 / qcomp=0.60 / qpmin=0 / qpmax=69 / qpstep=4 / cplxblur=20.0 / qblur=0.5 / ip_ratio=1.40 / aq=1:1.00
Language : Portuguese
Default : Yes
Forced : No

Audio
ID : 2
Format : MPEG Audio
Format version : Version 1
Format profile : Layer 3
Mode : Joint stereo
Muxing mode : Header stripping
Codec ID : A_MPEG/L3
Codec ID/Hint : MP3
Duration : 1h 35mn
Bit rate mode : Constant
Bit rate : 96.0 Kbps
Channel(s) : 2 channels
Sampling rate : 44.1 KHz
Compression mode : Lossy
Stream size : 65.7 MiB (10%)
Title : por
Language : Portuguese
Default : Yes
Forced : No

Text
ID : 3
Format : UTF-8
Codec ID : S_TEXT/UTF8
Codec ID/Info : UTF-8 Plain Text
Title : Credito
Language : Portuguese
Default : Yes
Forced : No